<svg id="Capa_1" enable-background="new 0 0 512.592 512.592" height="512" viewBox="0 0 512.592 512.592" width="512" xmlns="http://www.w3.org/2000/svg"><g style="fill:none;stroke:rgb(0,0,0);stroke-width:15;stroke-linecap:round;stroke-linejoin:round;stroke-miterlimit:10"><g><path d="m174.637 77.416-10.751 22.148"/><path d="m129.366 47.821-19.287 29.595"/><path d="m228.13 95.114-1.648 17.462"/><path d="m337.947 77.416 10.751 22.148"/><path d="m383.218 47.821 19.287 29.595"/><path d="m284.454 95.114 1.648 17.462"/><path d="m192.411 376.059c1.783.996 3.589 1.961 5.444 2.861l33.396 16.197v109.975"/><path d="m149.567 188.924-10.473 81.282c-4.14 32.132 6.688 63.58 28.048 86.19"/><path d="m363.017 188.924 10.473 81.282c5.811 45.101-17.847 88.87-58.762 108.714l-33.396 16.197v109.975"/><path d="m240.229 207.585v87.33c0 4.209 3.412 7.62 7.62 7.62h15.885c4.209 0 7.62-3.412 7.62-7.62v-87.272"/><path d="m179.184 198.22v96.695c0 4.209 3.412 7.62 7.62 7.62h15.885c4.209 0 7.62-3.412 7.62-7.62v-90.336"/><path d="m302.274 204.579v90.336c0 4.209 3.412 7.62 7.62 7.62h15.885c4.208 0 7.62-3.412 7.62-7.62v-96.695"/></g><path d="m438.925 147.465c11.459-8.577 22.403-17.999 32.732-28.262l15.593-15.493c22.05-21.91 22.164-57.547.254-79.597-21.909-22.051-57.547-22.163-79.598-.254l-15.593 15.494c-36.4 36.169-84.706 56.087-136.021 56.087-51.314 0-99.621-19.919-136.021-56.087l-15.592-15.493c-16.376-16.275-40.245-20.388-60.422-12.399"/><path d="m19.076 31.261c-15.64 22.035-13.541 52.773 6.259 72.447l15.593 15.494c57.633 57.267 134.117 88.805 215.364 88.805 55.795 0 109.344-14.876 156.084-42.741"/></g></svg>